# xmcd CD database file
# Copyright (C) 1993-1998 Ti Kan
# 
# Track frame offsets:
#     150
#     9177
#     27027
#     43475
#     64327
#     76550
#     96607
#     113670
#     125652
#     136322
#     153665
#     165612
#     176015
#     191147
#     210935
#     223215
# 
# Disc length: 3257 seconds
# 
# Revision: 1
# Processed by: cddbd v1.4b41PL1 Copyright (c) Steve Scherf et al.
# Submitted via: DiscPlay 4.0.4
# 
DISCID=e00cb710
DTITLE=Gladys Knight - Gladys Knight
DYEAR=1900
DGENRE=
TTITLE0=Every Beat Of My Heart
TTITLE1=I'm Still Caught Up With You
TTITLE2=I'll Take A Melody
TTITLE3=All The Time
TTITLE4=Letter Full Of Tears
TTITLE5=We Don't Make Each Other Laugh Anymore
TTITLE6=Best Thing That Ever Happened To Me
TTITLE7=What Shall I Do
TTITLE8=One More Lonely Night
TTITLE9=With You In Mind
TTITLE10=Perfect Love
TTITLE11=Morning Noon And Night
TTITLE12=The Way It Was
TTITLE13=Butterfly
TTITLE14=Come See About Me
TTITLE15=Midnight Train To Georgia
EXTD=
EXTT0=
EXTT1=
EXTT2=
EXTT3=
EXTT4=
EXTT5=
EXTT6=
EXTT7=
EXTT8=
EXTT9=
EXTT10=
EXTT11=
EXTT12=
EXTT13=
EXTT14=
EXTT15=
PLAYORDER=
